<svg xmlns="http://www.w3.org/2000/svg" viewBox="0 0 80.41 79.32"><defs><style>.cls-1{fill:#fff;}</style></defs><title>2Asset 4</title><g id="Layer_2" data-name="Layer 2"><g id="Layer_1-2" data-name="Layer 1"><g id="Layer_2-2" data-name="Layer 2-2"><path class="cls-1" d="M66.35,0H14C3.94,0,0,5.42,0,14.7v52C0,76,1.82,79.32,11.9,79.32H67.41c10.09,0,13-3.32,13-12.6V13.63C80.38,4.35,76.44,0,66.35,0Zm-.5,62.5A2.52,2.52,0,0,1,63.34,65h-8a2.51,2.51,0,0,1-2.51-2.51V60.82C43.49,58.69,40,51.59,39.07,40.46L29.85,55.25V62.5A2.52,2.52,0,0,1,27.34,65h-8a2.51,2.51,0,0,1-2.51-2.51v-8A2.51,2.51,0,0,1,19.36,52h5.1l14-22.44A5.68,5.68,0,0,0,37,26.82a8.61,8.61,0,0,0-5.27-1.94h-.37V25a2.53,2.53,0,0,1-2.51,2.51h-8A2.52,2.52,0,0,1,18.35,25V17a2.51,2.51,0,0,1,2.51-2.51h8A2.51,2.51,0,0,1,31.35,17v1.49h0A14.16,14.16,0,0,1,41.29,22,11.78,11.78,0,0,1,45,31.27c0,15.29,2.63,21.18,7.81,23.24A2.52,2.52,0,0,1,55.34,52h8a2.51,2.51,0,0,1,2.51,2.51h0Z"/></g></g></g></svg>